# xmcd
#
# Track frame offsets: 
#        150
#        18040
#        34561
#        54899
#        72279
#        90912
#        110376
#        128086
#        149353
#        170068
#        188604
#        206010
#        228977
#        245783
#        260940
#        280596
#        296335
#        314247
#        330427
#
# Disc length: 4435 seconds
#
# Revision: 0
# Processed by: cddbd v1.5.2PL0 Copyright (c) Steve Scherf et al.
# Submitted via: ExactAudioCopy v0.99pb5
#
DISCID=0f115113
DTITLE=Various Artist - Manele din dragoste vol.4
DYEAR=1900
DGENRE=Manele
TTITLE0=Denisa - Nu vreau sa te ranesc
TTITLE1=Sorin Potop si Alexandra - Un mesaj pe telefon
TTITLE2=Adrian Minune - Ramai cu mine in casa mea
TTITLE3=Claudia si Florin Peste - Pe inima mea e scris numele tau
TTITLE4=Nicolae Guta - Strainatatea
TTITLE5=Puiu Codreanu - Eu ti-am dat inima
TTITLE6=Nicoleta Guta - Ce greu e fara tine
TTITLE7=Alex - Suferinta
TTITLE8=Adi de la Valcea - Te rog, nu pleca
TTITLE9=Mihaela Minune si Nicu - Raspunde-mi, iubire
TTITLE10=Liviu si Denisa - Mii de lacrimi
TTITLE11=Nicolae Guta - Ce mult ai gresit
TTITLE12=Mihaela Minune si Andrei - Ploua si-mi plange inima
TTITLE13=Denisa - Un sarut pentru un sarut
TTITLE14=Mihaela Minune si Ady - Dragostea mea
TTITLE15=Catalin si Ana-Maria - Te cheama inima mea
TTITLE16=Leonard - Cat e de bine cand sunt cu tine
TTITLE17=Danezu - Cu tine vreau sa fiu
TTITLE18=Promo
EXTD=
EXTT0=
EXTT1=
EXTT2=
EXTT3=
EXTT4=
EXTT5=
EXTT6=
EXTT7=
EXTT8=
EXTT9=
EXTT10=
EXTT11=
EXTT12=
EXTT13=
EXTT14=
EXTT15=
EXTT16=
EXTT17=
EXTT18=
PLAYORDER=
